<?xml version="1.0" encoding="UTF-8" standalone="no"?>
<svg
        width="537.23859"
        height="317.15366"
        viewBox="0 0 142.14468 83.913752"
        version="1.1"
        xmlns="http://www.w3.org/2000/svg">
    <path style="fill:#FFFFFF;" transform="matrix(-1,0,-0.30071188,-0.95371503,-43.263605,-56.822887)"
          d="M -25.347019 -59.580572 L -25.347026 -147.5664 L -25.346863 -147.56694 L -37.900646 -147.56694 L -48.933584 -129.22225 L -48.933339 -108.34876 L -37.90108 -126.69291 L -37.900801 -59.580572 L -25.347019 -59.580572 z M -50.455101 -59.580572 L -50.454591 -147.5664 L -63.008891 -147.5664 L -103.37161 -80.454055 L -103.37161 -98.798749 L -115.92567 -77.925266 L -115.92566 -59.580572 L -103.37136 -59.580572 L -63.008808 -126.69237 L -63.008883 -59.580572 L -50.455101 -59.580572 z M -78.263799 -59.580572 L -64.530113 -82.416075 L -64.529842 -103.28956 L -90.817582 -59.580572 L -78.263799 -59.580572 z M -128.47945 -59.580572 L -75.562673 -147.5664 L -88.116456 -147.5664 L -128.47969 -80.454055 L -128.47945 -147.5664 L -141.03324 -147.5664 L -141.03323 -59.580572 L -128.47945 -59.580572 z M -115.92539 -103.85795 L -103.37185 -124.73144 L -103.37173 -147.56694 L -115.92499 -147.56694 L -115.92539 -103.85795 z "/>
</svg>